<?xml version="1.0" encoding="utf-8"?>
<!-- Generator: Adobe Illustrator 17.0.0, SVG Export Plug-In . SVG Version: 6.00 Build 0)  -->
<!DOCTYPE svg PUBLIC "-//W3C//DTD SVG 1.1//EN" "http://www.w3.org/Graphics/SVG/1.1/DTD/svg11.dtd">
<svg version="1.1" id="Layer_1" xmlns="http://www.w3.org/2000/svg" xmlns:xlink="http://www.w3.org/1999/xlink" x="0px" y="0px"
	 width="59.77px" height="59.77px" viewBox="0 0 59.77 59.77" enable-background="new 0 0 59.77 59.77" xml:space="preserve">
<g>
	<path fill="#FFFFFF" d="M23.82,30.992c-0.936-0.142-1.856-0.134-2.807-0.148c-1.447-0.022-3.334-0.006-4.334-0.006
		c0,2.103,0,4.132,0,6.214c2,0,4.391,0.003,6.577-0.005c0.236-0.001,0.453-0.055,0.684-0.11c1.555-0.368,2.294-1.471,2.256-3.319
		C26.166,32.162,25.37,31.227,23.82,30.992z"/>
	<path fill="#FFFFFF" d="M43.176,27.81c-1.443-0.821-2.955-0.813-4.391,0.055c-1.114,0.673-1.519,2.13-1.706,3.13
		c2.62,0,5.134,0,7.766,0C44.796,28.994,44.328,28.464,43.176,27.81z"/>
	<path fill="#FFFFFF" d="M22.685,26.976c0.386-0.003,0.758-0.065,1.134-0.158c1.43-0.354,1.934-1.116,1.877-2.741
		c-0.043-1.206-0.679-1.969-2.067-2.07c-2.053-0.149-4.077-0.121-6.138-0.166c-0.275-0.006-0.814-0.001-0.814-0.001
		c0,1.749,0,3.414,0,5.144C18.679,26.983,20.691,26.992,22.685,26.976z"/>
	<path fill="#FFFFFF" d="M29.885,1C13.932,1,1,13.932,1,29.885C1,45.838,13.932,58.77,29.885,58.77S58.77,45.838,58.77,29.885
		C58.77,13.932,45.838,1,29.885,1z M35.679,18.994c3,0,7,0,10,0c0,1,0,2,0,2c-3,0-7,0-10,0
		C35.679,20.994,35.679,19.994,35.679,18.994z M30.284,37.377c-1.271,2.379-3.342,3.536-5.93,3.622
		c-4.058,0.135-8.277,0.094-12.339,0.126c-0.039,0-0.336-0.029-0.336-0.069c0-7.731,0-15.442,0-23.191
		c0-0.023,0.405-0.062,0.526-0.062c3.824,0.003,7.727-0.019,11.55,0.03c1.607,0.021,3.178,0.426,4.487,1.437
		c2.328,1.799,2.828,5.83,0.935,8.023c-0.444,0.515-1.042,0.889-1.578,1.33c-0.017-0.021,0.005,0.021,0.036,0.036
		C30.96,30.35,32.072,34.029,30.284,37.377z M40.434,38.137c1.661,0.184,3.178-0.119,4.146-1.718c0.074-0.123,0.263-0.278,0.4-0.28
		c1.409-0.018,2.819-0.026,4.398-0.026c-0.255,0.625-0.407,1.183-0.696,1.667c-1.488,2.493-3.767,3.689-6.609,3.898
		c-1.759,0.13-3.454-0.121-5.072-0.877c-2.677-1.25-4.113-3.354-4.446-6.266c-0.225-1.966-0.169-3.907,0.477-5.79
		c1.097-3.195,3.972-5.259,7.453-5.301c1.053-0.013,2.137,0.078,3.157,0.326c3.143,0.766,5.38,3.514,5.743,6.777
		c0.119,1.071,0.131,2.446,0.198,3.446c-4.27,0-8.392,0-12.505,0C36.68,35.994,38.28,37.899,40.434,38.137z"/>
</g>
<g>
	<circle fill="#FFFFFF" stroke="#000000" stroke-width="2" stroke-miterlimit="10" cx="530.207" cy="389.891" r="28.885"/>
	<g>
		<path d="M512.309,401.062c0-7.731,0-15.442,0-23.191c0.13-0.023,0.251-0.062,0.371-0.062c3.824,0.003,7.649-0.019,11.473,0.03
			c1.607,0.021,3.139,0.426,4.448,1.437c2.328,1.799,2.808,5.83,0.915,8.023c-0.444,0.515-1.052,0.889-1.588,1.33
			c-0.017-0.021,0,0.021,0.031,0.036c3.326,1.691,4.434,5.37,2.645,8.717c-1.271,2.379-3.342,3.536-5.93,3.622
			c-4.058,0.135-8.122,0.094-12.184,0.126C512.452,401.131,512.413,401.102,512.309,401.062z M516.915,397.057
			c2.248,0,4.434,0.003,6.62-0.005c0.236-0.001,0.474-0.055,0.706-0.11c1.555-0.368,2.305-1.471,2.267-3.319
			c-0.03-1.456-0.815-2.391-2.365-2.627c-0.936-0.142-1.899-0.134-2.85-0.148c-1.447-0.022-2.894-0.006-4.377-0.006
			C516.915,392.946,516.915,394.975,516.915,397.057z M516.911,386.989c2.062,0,4.057,0.008,6.051-0.007
			c0.386-0.003,0.781-0.065,1.157-0.158c1.43-0.354,1.945-1.116,1.888-2.741c-0.043-1.206-0.673-1.969-2.061-2.07
			c-2.053-0.15-4.119-0.121-6.18-0.166c-0.275-0.006-0.549-0.001-0.855-0.001C516.911,383.594,516.911,385.259,516.911,386.989z"/>
		<path d="M549.904,393.764c-4.27,0-8.392,0-12.505,0c-0.398,1.99,1.202,4.023,3.356,4.261c1.661,0.184,3.178-0.06,4.146-1.659
			c0.074-0.123,0.263-0.248,0.4-0.25c1.409-0.018,2.819-0.011,4.398-0.011c-0.255,0.625-0.407,1.19-0.696,1.674
			c-1.489,2.493-3.767,3.692-6.609,3.902c-1.759,0.13-3.454-0.119-5.072-0.875c-2.677-1.25-4.113-3.353-4.446-6.265
			c-0.225-1.966-0.169-3.907,0.477-5.789c1.097-3.195,3.972-5.259,7.453-5.301c1.053-0.013,2.137,0.078,3.157,0.326
			c3.143,0.766,5.38,3.396,5.743,6.659C549.825,391.507,549.837,392.59,549.904,393.764z M545.167,390.778
			c-0.05-1.339-0.517-2.419-1.669-3.074c-1.443-0.821-2.955-0.869-4.391-0.001c-1.114,0.673-1.519,1.796-1.706,3.075
			C540.02,390.778,542.534,390.778,545.167,390.778z"/>
		<path d="M535.954,381.431c0-0.752,0-1.48,0-2.256c3.345,0,6.677,0,10.062,0c0,0.718,0,1.463,0,2.256
			C542.685,381.431,539.337,381.431,535.954,381.431z"/>
	</g>
</g>
</svg>
