<?xml version="1.0" encoding="utf-8"?>
<!-- Generator: Adobe Illustrator 17.0.0, SVG Export Plug-In . SVG Version: 6.00 Build 0)  -->
<!DOCTYPE svg PUBLIC "-//W3C//DTD SVG 1.1//EN" "http://www.w3.org/Graphics/SVG/1.1/DTD/svg11.dtd">
<svg version="1.1" id="Layer_1" xmlns="http://www.w3.org/2000/svg" xmlns:xlink="http://www.w3.org/1999/xlink" x="0px" y="0px"
	 width="59.77px" height="59.77px" viewBox="0 0 59.77 59.77" enable-background="new 0 0 59.77 59.77" xml:space="preserve">
<path fill="#FFFFFF" d="M29.885,1C13.932,1,1,13.932,1,29.885C1,45.838,13.932,58.77,29.885,58.77S58.77,45.838,58.77,29.885
	C58.77,13.932,45.838,1,29.885,1z M38.679,19.034c-2,0-2.861-0.03-4.153,0.01c-0.883,0.028-1.819,0.349-2.159,1.226
	c-0.201,0.52-0.26,1.134-0.274,1.707c-0.03,1.196-0.039,2.393-0.039,3.656c0.239,0.011,0.439,0.028,0.654,0.029
	c1.565,0.002,3.123,0.019,4.688-0.008c0.534-0.009,0.586,0.217,0.524,0.661c-0.171,1.218-0.301,2.583-0.47,3.801
	c-0.079,0.568-0.216,0.878-0.335,1.878c-1.688,0-3.435,0-5.435,0c0,5,0,10,0,15h-6c0-5,0-10,0-15c-2,0-3,0-5,0c0-2,0-4,0-6
	c2,0,3.355,0,5.148,0c0-1-0.049-2.338,0.012-3.385c0.084-1.433,0.083-2.981,0.445-4.349c0.225-0.849,0.674-1.793,1.435-2.462
	c0.509-0.447,0.914-1.029,1.524-1.378c1.086-0.62,2.25-0.981,3.494-1.013c1.359-0.035,2.962-0.034,4.321-0.007
	c0.454,0.009,0.621,0.137,1.621,0.217C38.679,15.396,38.679,17.176,38.679,19.034z"/>
</svg>
