<?xml version="1.0" encoding="utf-8"?>
<!-- Generator: Adobe Illustrator 17.0.0, SVG Export Plug-In . SVG Version: 6.00 Build 0)  -->
<!DOCTYPE svg PUBLIC "-//W3C//DTD SVG 1.1//EN" "http://www.w3.org/Graphics/SVG/1.1/DTD/svg11.dtd">
<svg version="1.1" id="Layer_1" xmlns="http://www.w3.org/2000/svg" xmlns:xlink="http://www.w3.org/1999/xlink" x="0px" y="0px"
	 width="57.77px" height="57.77px" viewBox="0 0 57.77 57.77" enable-background="new 0 0 57.77 57.77" xml:space="preserve">
<path fill="#FFFFFF" d="M28.885,0C12.932,0,0,12.932,0,28.885C0,44.838,12.932,57.77,28.885,57.77S57.77,44.838,57.77,28.885
	C57.77,12.932,44.838,0,28.885,0z M42.934,39.708c-3.37,0-6.682,0-10.098,0c0-0.898,0-1.727,0-2.701
	c0.711-0.09,1.458-0.185,2.335-0.297c0-4.454,0-8.923,0-13.392c-0.086-0.037-0.172-0.074-0.257-0.111
	c-1.765,5.518-3.53,11.037-5.298,16.565c-1.276,0-2.406,0-3.717,0c-1.455-5.228-2.91-10.455-4.365-15.683
	c-0.096,0.022-0.193,0.044-0.289,0.066c0,4.11,0,8.221,0,12.465c2.167,0.093,1.713,1.587,1.514,3.087c-2.597,0-5.196,0-7.902,0
	c0-0.885,0-1.712,0-2.713c2.372,0.193,2.564-1.283,2.496-3.206c-0.119-3.349-0.098-6.707-0.007-10.058
	c0.049-1.795-0.088-3.213-2.508-2.743c0-1.038,0-1.874,0-2.974c3.193,0,6.382-0.054,9.563,0.068c0.396,0.015,0.934,0.91,1.102,1.485
	c1.018,3.474,1.947,6.974,3.262,10.484c1.1-3.966,2.2-7.933,3.315-11.953c3.647,0,7.184,0,10.825,0c0,0.92,0,1.748,0,2.749
	c-2.383-0.217-2.568,1.253-2.499,3.175c0.121,3.349,0.085,6.706,0.013,10.058c-0.038,1.78,0.064,3.271,2.516,2.751
	C42.934,37.914,42.934,38.748,42.934,39.708z"/>
</svg>
