<?xml version="1.0" encoding="utf-8"?>
<!-- Generator: Adobe Illustrator 17.0.0, SVG Export Plug-In . SVG Version: 6.00 Build 0)  -->
<!DOCTYPE svg PUBLIC "-//W3C//DTD SVG 1.1//EN" "http://www.w3.org/Graphics/SVG/1.1/DTD/svg11.dtd">
<svg version="1.1" id="Layer_1" xmlns="http://www.w3.org/2000/svg" xmlns:xlink="http://www.w3.org/1999/xlink" x="0px" y="0px"
	 width="59.77px" height="59.77px" viewBox="0 0 59.77 59.77" enable-background="new 0 0 59.77 59.77" xml:space="preserve">
<path fill="#FFFFFF" d="M29.885,1C13.932,1,1,13.932,1,29.885C1,45.838,13.932,58.77,29.885,58.77S58.77,45.838,58.77,29.885
	C58.77,13.932,45.838,1,29.885,1z M44.084,22.821c-0.624,0.772-1.33,1.46-2.118,2.064c-0.054,0.042-0.106,0.088-0.158,0.132
	c-0.126,0.039-0.111,0.14-0.106,0.237c0.023,0.401,0.018,0.801,0.002,1.202c-0.112,2.719-0.811,5.281-2.086,7.681
	c-1.737,3.271-4.227,5.785-7.567,7.424c-1.811,0.888-3.729,1.402-5.734,1.609c-3.198,0.331-6.269-0.126-9.201-1.459
	c-0.717-0.326-1.411-0.694-2.074-1.147c3.291,0.29,6.26-0.529,8.894-2.546c-1.292-0.072-2.463-0.47-3.495-1.246
	C19.413,36,18.701,35,18.283,33.749c0.919,0.164,1.8,0.141,2.73-0.101c-0.411-0.111-0.769-0.203-1.107-0.354
	c-2.076-0.929-3.311-2.51-3.704-4.753c-0.046-0.265-0.058-0.53-0.068-0.796c-0.005-0.127,0.024-0.166,0.15-0.098
	c0.548,0.294,1.131,0.49,1.742,0.6c0.243,0.044,0.486,0.082,0.81,0.062c-1.21-0.839-1.964-1.946-2.39-3.284
	c-0.365-1.294-0.348-2.578,0.104-3.85c0.12-0.338,0.267-0.665,0.455-0.975c0.082,0.018,0.108,0.088,0.149,0.136
	c2.775,3.263,6.269,5.271,10.489,6.012c0.592,0.104,1.191,0.157,1.79,0.206c0.152,0.012,0.182-0.016,0.152-0.175
	c-0.535-2.892,0.884-5.626,3.525-6.809c2.27-1.017,5.009-0.513,6.768,1.251c0.113,0.114,0.211,0.156,0.378,0.119
	c1.209-0.266,2.352-0.702,3.433-1.304c0.061-0.034,0.113-0.098,0.197-0.077c0-0.001,0.001,0.216,0.001,0.215l0.005,0.221
	c-0.003,0-0.004,0-0.006,0c-0.171,0-0.496,0.975-0.879,1.5c-0.424,0.58-0.945,0.953-1.542,1.352c-0.04,0.027-0.081-0.001-0.12,0.027
	c-0.01,0.007-0.014-0.006-0.032,0.022c0.593-0.067,1.163-0.201,1.726-0.353c0.557-0.15,1.097-0.359,1.687-0.6
	C44.509,22.288,44.3,22.554,44.084,22.821z"/>
</svg>
