<?xml version="1.0" encoding="utf-8"?>
<!-- Generator: Adobe Illustrator 17.0.0, SVG Export Plug-In . SVG Version: 6.00 Build 0)  -->
<!DOCTYPE svg PUBLIC "-//W3C//DTD SVG 1.1//EN" "http://www.w3.org/Graphics/SVG/1.1/DTD/svg11.dtd">
<svg version="1.1" id="Layer_1" xmlns="http://www.w3.org/2000/svg" xmlns:xlink="http://www.w3.org/1999/xlink" x="0px" y="0px"
	 width="59.77px" height="59.77px" viewBox="0 0 59.77 59.77" enable-background="new 0 0 59.77 59.77" xml:space="preserve">
<path fill="#FFFFFF" d="M30.207,1.006c-15.953,0-28.885,12.932-28.885,28.885s12.932,28.885,28.885,28.885
	s28.885-12.932,28.885-28.885S46.159,1.006,30.207,1.006z M41.365,28.962c-1.922,3.949-4.322,7.596-7.32,10.817
	c-1.393,1.496-2.924,2.818-5.03,3.304c-1.289,0.297-2.299-0.073-3.166-0.95c-1.419-1.437-2.025-3.3-2.639-5.163
	c-0.801-2.428-1.604-4.857-2.504-7.248c-0.366-0.972-0.934-1.884-1.511-2.757c-0.472-0.713-0.945-0.734-1.641-0.252
	c-0.369,0.255-0.72,0.535-1.076,0.81c-0.298,0.23-0.557,0.246-0.8-0.087c-0.172-0.235-0.397-0.431-0.558-0.672
	c-0.291-0.436-0.314-0.801,0.141-1.225c1.642-1.531,3.215-3.135,4.856-4.666c0.918-0.856,1.967-1.457,3.318-1.401
	c1.058,0.044,1.856,0.443,2.436,1.315c0.818,1.229,1.011,2.662,1.338,4.053c0.614,2.607,1.065,5.26,2.17,7.728
	c0.284,0.634,0.549,1.43,1.296,1.522c0.751,0.093,1.148-0.665,1.471-1.227c0.804-1.4,1.532-2.844,2.264-4.284
	c0.149-0.293,0.198-0.641,0.267-0.969c0.443-2.092-0.743-3.233-2.813-2.714c-0.239,0.06-0.481,0.111-0.724,0.15
	c-0.079,0.013-0.167-0.026-0.25-0.041c0.475-3.136,2.657-5.891,5.6-6.474c0.951-0.189,1.963-0.258,2.925-0.163
	c1.84,0.183,2.739,1.176,3.145,2.988C43.167,24.06,42.531,26.567,41.365,28.962z"/>
</svg>
